<svg width="1024" height="1024" viewBox="0 0 1024 1024" fill="none" xmlns="http://www.w3.org/2000/svg">
<path d="M325.093 201.466C326.259 201.291 326.79 201.332 327.931 201.742C332.315 203.32 336.638 205.508 340.907 207.395L365.477 218.198L444.784 252.838C452.733 256.4 460.736 260.799 468.833 263.91C471.163 264.805 473.998 264.472 476.474 264.499C483.513 264.576 492.189 263.747 498.932 265.649C508.386 268.315 517.551 272.841 526.618 276.608L597.886 309.241C608.982 314.889 620.553 320.431 631.033 327.146C638.091 331.669 644.784 336.972 651.564 341.903L695.671 373.728C701.359 366.597 709.475 358.536 717.699 354.535C720.239 353.299 722.513 352.581 725.25 353.66C728.468 354.93 730.616 358.698 731.971 361.718C733.892 365.998 735.654 372.589 733.812 377.097L733.525 377.75C731.156 383.32 725.345 387.873 721.08 392.045C724.76 394.455 727.873 397.997 731.561 400.19L750.849 410.41L787.222 430.215C811.69 444.374 836.168 459.206 858.923 476.018C880.052 491.628 900.246 509.428 918.79 528.013L938.221 548.795C943.551 554.695 949.218 560.747 953.423 567.521C955.899 571.51 958.34 576.499 958.811 581.226C959.261 585.744 958.219 590.328 957.362 594.736L951.15 621.252L947.446 638.5C945.659 645.617 939.797 647.822 934.056 651.25L935.25 651.983C937.184 653.09 938.22 654.167 939.662 655.897C938.549 658.281 932.436 661.52 930.042 662.892L892.644 683.412C892.066 685.838 892.371 688.354 891.54 690.75C890.579 693.518 888.921 695.17 886.496 696.75C879.691 701.184 871.79 704.697 864.623 708.533L828.654 728.315L764.475 763.654L720.773 787.48C717.283 789.166 713.694 791.088 709.992 792.269C707.173 793.169 703.898 793.365 700.97 793.697C695.965 794.265 691.312 794.561 686.312 793.809C674.794 792.075 663.486 785.555 653.289 780.239L622.777 764.832L613.267 760.07C612.597 759.724 610.742 758.469 610.152 758.42C609.139 758.335 604.87 760.565 603.489 761.047C591.906 765.09 579.326 765.985 567.422 763.015C545.174 757.463 528.789 744.289 516.126 725.367C513.248 721.068 510.943 716.426 508.185 712.058C507.644 711.201 469.234 691.986 466.059 690.361L327.646 620.331L283.755 597.858C272.215 591.876 260.572 585.26 248.421 580.663C237.248 576.436 225.134 573.257 213.171 572.629C204.951 572.198 197.342 572.759 189.199 570.764L178.281 567.359C155.095 557.984 138.64 539.022 129.336 516.187L125.189 504.972C124.578 503.281 124.037 500.936 122.888 499.556C121.412 497.782 119.015 496.303 117.25 494.791L109.439 487.615C94.5734 473.562 78.7968 456.853 70.6699 437.869C65.6409 426.122 63.9343 413.197 62.5636 400.603C62.203 397.29 61.1001 391.038 62.7404 388.014C63.9113 385.854 68.1729 383.763 70.3562 382.687C70.7588 382.489 72.4689 381.824 72.6815 381.57C73.1257 381.04 72.5232 380.196 72.4439 379.509C70.8467 365.681 69.8922 351.02 75.348 337.858C76.4577 335.181 77.8578 332.495 80.2214 330.722C82.5461 328.979 85.3707 330.527 87.7816 328.921C116.215 309.99 147.171 294.463 177.349 278.539L241.889 244.363L296.776 219.571L297.842 214.346C300.634 211.691 305.038 210.199 308.507 208.661L325.093 201.466ZM536.818 625.208C526.851 626.15 518.295 630.373 511.829 638.147C508.006 642.743 505.081 647.968 503.495 653.75L503.246 654.627C501.933 659.447 501.877 664.548 501.944 669.514C502.179 687.002 507.336 703.344 516.094 718.392C526.692 736.603 543.388 752.8 564.25 757.987C566.115 758.451 567.956 758.626 569.87 758.753C575.599 758.557 582.922 756.993 587.094 752.589C588.118 751.508 588.763 750.05 589.681 748.865C599.243 736.534 604.032 719.732 602.354 704.201C599.685 679.492 585.321 652.271 565.91 636.67C558.195 630.469 547.138 624.302 536.818 625.208ZM635.954 339.708C638.733 342.268 642.068 343.724 645.136 345.844L660.043 356.774L698.369 384.665C705.642 389.996 712.757 395.869 720.316 400.75C721.339 400.367 721.227 400.605 721.797 399.539C719.008 396.486 715.135 394.025 711.874 391.469L676.516 365.781L640.743 340.225L641.75 342C640.685 342.543 638.238 340.049 636.723 339.808L635.954 339.708Z" fill="#181818"/>
<path d="M441.994 543.047C441.239 542.862 440.881 542.59 440.25 542.154C438.896 538.513 439.257 533.615 439.946 529.843C439.947 531.856 439.566 534.484 440.876 536.117L443.044 537.384C442.941 539.265 443.096 541.452 441.994 543.047Z" fill="#7BBD08"/>
<path d="M728.915 405.25L730.259 405.084C736.362 407.694 744.306 411.369 749.352 415.643C749.539 417.308 749.461 418.159 748.938 419.75C746.549 419.669 743.742 417.245 741.75 416.013C738.172 413.802 732.202 411.433 729.542 408.25C728.639 407.17 728.857 406.582 728.915 405.25Z" fill="#4E4D4E"/>
<path d="M485.927 534.543L485.985 540.385C479.034 541.11 472.215 542.507 465.246 542.823L451.266 543.189C448.669 543.198 445.924 542.893 443.349 543.206C442.395 543.322 442.823 543.383 441.994 543.047C443.096 541.452 442.941 539.265 443.044 537.384C453.754 541.008 464.693 540.974 475.661 538.406C478.629 537.711 481.352 536.476 484.366 535.842C485.38 535.628 485.327 535.342 485.927 534.543Z" fill="#57970D"/>
<path d="M701.445 375.375C701.546 374.799 701.501 374.941 701.796 374.177C702.482 372.393 704.031 370.734 705.32 369.33C710.093 364.13 715.703 360.457 722.029 357.453C726.571 361.407 727.841 364.172 729.288 369.887C727.447 368.83 723.58 366.266 721.448 366.253C720.209 366.246 718.112 366.958 716.886 367.315C712.41 368.619 705.939 377.401 701.445 375.375Z" fill="#D8D8D8"/>
<path d="M919.904 627.25L921.185 627.134C921.701 628.836 921.206 630.911 920.963 632.678C920.67 634.809 920.405 637.294 919.408 639.229C917.414 643.096 912.476 646.154 909.05 648.75L908.06 648.916C906.646 647.216 907.388 637.848 907.357 635.143L919.904 627.25Z" fill="#FE832A"/>
<path d="M775.566 709.25L776.738 709.093C778.134 710.64 777.354 719.953 777.36 722.543L764.474 728.75L763.556 728.856L762.924 728.25C762.196 723.854 762.938 719.259 763.566 714.884L775.566 709.25Z" fill="#FE832A"/>
<path d="M319.926 243.506C328.007 241.851 336.233 241.545 344.451 241.102C348 240.91 352.132 240.27 355.609 241.055C359.703 241.979 363.495 244.304 367.176 246.255L348.407 248.797C346.96 247.863 344.339 247.891 342.632 247.662L333.81 246.413C329.375 245.99 323.55 246.334 319.926 243.506Z" fill="#7BBD08"/>
<path d="M229.018 256.59C235.081 252.327 242.647 249.789 249.356 246.67L297.687 224.437C297.422 226.81 297.223 229.152 296.566 231.456C294.066 232.344 291.779 233.463 289.256 234.257L288.319 234.721C286.66 235.505 284.25 234.849 282.408 234.835C278.062 236.328 272.939 238.258 269.075 240.747L251.609 248.824C249.127 249.881 246.494 250.561 244.02 251.629C240.138 253.305 233.335 258.131 229.018 256.59Z" fill="#D8D8D8"/>
<path d="M282.408 234.835L286.063 233.028C288.98 231.848 293.59 230.185 296.566 231.456C294.066 232.344 291.779 233.463 289.256 234.257L288.319 234.721C286.66 235.505 284.25 234.849 282.408 234.835Z" fill="#EEFE9A"/>
<path d="M635.954 339.708L636.723 339.808C638.238 340.049 640.685 342.543 641.75 342L640.743 340.225L676.516 365.781L711.874 391.469C715.135 394.025 719.008 396.486 721.797 399.539C721.227 400.605 721.339 400.367 720.316 400.75C712.757 395.869 705.642 389.996 698.369 384.665L660.043 356.774L645.136 345.844C642.068 343.724 638.733 342.268 635.954 339.708Z" fill="#A3FD31" fill-opacity="0.988235"/>
<path d="M752.158 719.25L752.739 719.561C753.545 723.743 752.545 729.598 752.468 734.003C748.103 736.312 741.624 740.163 736.487 739.75L736.143 739.419C734.235 736.985 734.958 731.106 735.012 728.066L752.158 719.25Z" fill="#FE832A"/>
<path d="M880.171 667.75L880.922 668.023C876.506 672.579 871.15 675.746 865.75 678.99L842.583 692.214C832.683 697.84 822.804 703.958 812.548 708.91C807.36 711.415 801.776 712.92 796.583 715.399C792.389 717.401 788.547 719.85 784.259 721.75L783.781 721.738C784.384 720.569 785.67 720.107 786.829 719.619C792.396 717.273 797.495 713.56 802.531 710.25C809.092 705.937 816.72 702.891 823.743 699.35L840.576 690.201C853.95 683.302 868.09 676.795 880.171 667.75Z" fill="#4E4D4E"/>
<path d="M442 257.235L462.478 266.202C451.825 266.198 441.353 266.651 430.753 267.748L419.609 268.979C418.772 269.073 416.619 269.573 415.876 269.405C413.983 268.976 410.436 265.549 409.02 264.237L413.706 263.682L414.506 263.552L440.251 258.867C441.126 258.664 441.441 257.914 442 257.235Z" fill="#7BBD08"/>
<path d="M235.708 514.841C237.81 516.671 239.186 518.807 240.558 521.219L254.514 545.277C258.088 550.827 262.438 556.045 265.603 561.819C260.169 559.826 254.887 556.692 249.678 554.109C244.348 546.757 241.572 537.962 239.154 529.317C237.824 524.563 236.447 519.727 235.708 514.841Z" fill="#7BBD08"/>
<path d="M896.027 642.75L896.39 643.068C894.591 645.088 891.627 646.737 889.404 648.341L878.899 655.88C871.832 660.501 863.976 664.457 856.627 668.648C852.078 671.242 847.574 674.297 842.875 676.574C840.269 677.836 837.351 678.181 834.646 679.229L834 679.484C830.734 680.753 827.95 682.857 824.779 684.322C819.716 686.66 814.479 688.215 809.536 690.858C803.297 694.194 797.461 697.462 790.955 700.324C789.068 701.155 787.236 702.348 785.25 702.887L783.75 701.159C778.588 702.612 774.083 705.222 769.307 707.557L760.579 711.519C758.975 712.307 757.73 713.561 757.277 715.336C756.336 719.024 756.909 723.999 756.94 727.853C756.954 729.557 756.691 731.588 757.5 733.095L758.5 733.015C760.332 730.412 758.377 723.41 759.174 719.943C759.394 718.986 759.481 718.646 760.319 718.118C759.875 721.734 758.588 726.391 759.772 729.955C760.155 731.108 760.651 731.848 761.75 732.386C765.598 731.431 768.906 729.551 772.5 727.961L789.894 720.353C794.517 718.201 798.87 715.488 803.685 713.75L803.798 714.25L770.372 730.356C762.407 734.189 755.001 738.342 746.613 741.312L755.691 734.278L756.3 728.834L756.047 714.196L751.573 715.308L751.621 714.75L849.5 667.548L850.117 667.75C834.909 676.563 819.016 683.969 803.235 691.693L792.629 696.882C790.059 698.059 787.221 698.913 785.041 700.75L785.75 701.395C795.092 698.838 803.931 692.528 812.629 688.25C816.14 686.524 819.889 685.378 823.457 683.792C826.338 682.511 829.065 680.802 831.874 679.363C835.584 677.464 839.822 677.299 843.456 675.412C847.92 673.094 852.131 670.207 856.493 667.692L871.394 659.314L896.027 642.75Z" fill="#4E4D4E"/>
<path d="M440.172 525.875C441.703 527.405 443.309 529.239 445.249 530.238C448.613 531.971 454.112 531.482 457.818 531.584C460.539 531.658 463.187 532.052 465.952 532.057C471.78 532.068 478.909 531.952 484.416 529.962L485.927 534.543C485.327 535.342 485.38 535.628 484.366 535.842C481.352 536.476 478.629 537.711 475.661 538.406C464.693 540.974 453.754 541.008 443.044 537.384L440.876 536.117C439.566 534.484 439.947 531.856 439.946 529.843L440.172 525.875Z" fill="#A3FD31"/>
<path d="M701.445 375.375C705.939 377.401 712.41 368.619 716.886 367.315C718.112 366.958 720.209 366.246 721.448 366.253C723.58 366.266 727.447 368.83 729.288 369.887C729.941 373.542 730.182 375.137 727.919 378.318C724.933 382.517 721.092 386.212 717.411 389.801L701.052 376.739L701.445 375.375Z" fill="#A3FD31"/>
<path d="M494.017 551.045C494.299 550.547 494.504 550.063 494.63 549.502C495.299 546.529 493.266 543.044 492.132 540.35C490.552 536.593 489.168 532.669 487.404 529L475.442 506.657L454.343 467.542C448.331 456.201 443.515 443.71 436.834 432.796L436.378 432.074C434.696 429.379 431.592 427.711 428.959 426.034C420.388 420.574 411.057 416.432 401.959 411.959L358.002 390.822L358.25 390.395L416.345 417.6C422.482 420.84 428.836 423.755 434.626 427.587C436.855 429.73 438.606 431.773 440.182 434.473C444.268 441.475 447.564 449.394 451.232 456.667L468.559 489.217L488.513 526C491.635 531.692 495.386 537.035 498.105 542.97L494.966 552.665L494.017 551.045Z" fill="#E0FE7F"/>
<path d="M89.4915 445.744L89.4631 445.525L79.4717 439.113C72.5241 434.656 70.668 418.982 68.9795 411.219L97.1254 429.741L94.2909 439.49C93.6612 441.447 92.9751 445.405 91.4897 446.683L89.4915 445.744Z" fill="#D52213"/>
<path d="M282.408 234.835C284.25 234.849 286.66 235.505 288.319 234.721L289.256 234.257C291.779 233.463 294.066 232.344 296.566 231.456L296.512 233.506L295.584 233.914C294.567 234.373 293.675 234.93 292.734 235.524C287.558 238.794 281.319 240.711 275.552 242.691L257.277 250.302L227.729 263.533C225.66 264.437 221.859 266.761 219.81 266.956C215.2 270.005 208.363 274.165 202.96 275.392C200.911 275.33 198.969 274.871 196.948 274.924C196.137 274.945 195.611 274.294 194.966 273.827L213.435 264.214C218.183 261.278 223.724 258.407 229.018 256.59C233.335 258.131 240.138 253.305 244.02 251.629C246.494 250.561 249.127 249.881 251.609 248.824L269.075 240.747C272.939 238.258 278.062 236.328 282.408 234.835Z" fill="#EEFE9A"/>
<path d="M282.408 234.835C284.25 234.849 286.66 235.505 288.319 234.721L289.256 234.257C291.779 233.463 294.066 232.344 296.566 231.456L296.512 233.506L295.584 233.914C294.567 234.373 293.675 234.93 292.734 235.524C287.558 238.794 281.319 240.711 275.552 242.691L275.41 241.886C277.07 241.147 278.791 240.296 280.559 239.857C281.183 239.702 280.846 239.821 281.5 239.574L282 239.377L283 239L284.125 238.502L285 238.377C285.679 237.871 285.345 238.042 286.237 237.745C287.049 237.474 287.683 237.306 288.426 236.86L289.002 236.502L289.75 236.5L290.25 235.755C289.304 235.623 288.447 235.42 287.536 235.797C284.97 236.862 282.694 236.407 280.096 237.08C276.833 237.926 273.408 240.73 270.066 240.767L269.075 240.747C272.939 238.258 278.062 236.328 282.408 234.835Z" fill="#E0FE7F"/>
<path d="M440.172 525.875C442.63 521.278 447.775 519.505 452.5 518.028C457.512 516.461 463.939 515.67 469.104 516.802L469.804 516.95C476.37 518.457 480.993 524.558 484.416 529.962C478.909 531.952 471.78 532.068 465.952 532.057C463.187 532.052 460.539 531.658 457.818 531.584C454.112 531.482 448.613 531.971 445.249 530.238C443.309 529.239 441.703 527.405 440.172 525.875Z" fill="#E0FE7F"/>
<path d="M418.017 246.688L442 257.235C441.441 257.914 441.126 258.664 440.251 258.867L414.506 263.552L413.706 263.682L409.02 264.237L388.511 252.343C392.319 252.093 395.359 250.701 398.975 249.75C402.433 248.841 406.853 249.113 409.631 246.644C412.098 246.985 415.264 247.887 417.571 246.855L418.017 246.688Z" fill="url(#paint0_linear_1_16724)"/>
<path d="M286.238 249.89C290.976 247.759 296.402 247.058 301.505 246.274L319.926 243.506C323.55 246.334 329.375 245.99 333.81 246.413L342.632 247.662C344.339 247.891 346.96 247.863 348.407 248.797L302.437 261.817C296.989 257.383 291.177 255.145 286.238 249.89Z" fill="#A3FD31"/>
<path d="M306.385 218.694L303.992 217.55L303.799 216.877C306.197 214.66 309.232 213.532 312.198 212.282L326.213 206.71L418.017 246.688L417.571 246.855C415.264 247.887 412.098 246.985 409.631 246.644C399.217 243.813 389.518 239.3 379.589 235.132L339.573 218.594C335.708 217.044 331.872 214.693 327.97 213.419C326.475 212.93 325.039 213.128 323.526 213.421C317.78 214.535 311.708 216.256 306.385 218.694Z" fill="#D8D8D8"/>
<path d="M115.498 464.752L121.728 491.589L121.426 491.576C103.769 476.768 88.8855 460.798 77.4531 440.669L88.3081 447.381C89.5983 448.189 93.0571 450.924 94.3729 450.67L94.9328 450.031C95.0749 450.567 95.0857 451.157 95.3591 451.64C95.7673 452.361 98.6934 453.87 99.5421 454.438C104.181 457.544 108.76 461.129 113.613 463.866L115.498 464.752Z" fill="#7BBD08"/>
<path d="M301.642 219.023L350.472 237.692L341.621 238.386L299.376 244.282L301.642 219.023Z" fill="#57970D"/>
<path d="M159.794 427.63C164.159 427.122 168.85 427.199 173.137 428.237C184.508 430.992 193.882 435.696 201.868 444.399C214.29 457.936 219.537 474.609 224.791 491.768C226.293 496.673 228.685 502.887 228.454 508L227.956 508.125C226.766 506.779 225.901 505.293 224.978 503.757C217.847 485.717 209.47 466.161 195.729 452.099C187.419 443.596 176.798 435.639 164.94 433.092C160.002 432.031 155.053 432.026 150.031 431.952L152.242 430.742C154.737 429.341 157.081 428.483 159.794 427.63Z" fill="#4E4D4E"/>
<path d="M752.863 422.528L753.177 418.096L753.885 417.673C794.092 439.847 834.246 462.197 870.25 490.945C882.601 500.807 894.03 511.861 905.688 522.526C905.618 523.998 905.23 525.543 904.969 527L904.416 527.179C892.326 513.714 878.454 502.897 864.013 492.101C841.64 475.375 818.12 460.28 793.954 446.28L769.901 432.74C764.123 429.521 758.214 426.429 752.863 422.528Z" fill="#D8D8D8"/>
<path d="M219.822 464.611L211.69 449.611L272.46 483.195L286.668 491.015C288.21 491.856 290.488 493.495 292.209 493.486L295.727 504.44L297.454 509.853C294.292 508.347 291.434 506.413 288.437 504.628L271.296 494.655L238.612 475.86L227.353 468.706C224.88 467.075 222.774 465.248 219.822 464.611Z" fill="#7BBD08"/>
<path d="M435.793 285.749L477.605 274.557L488.38 271.672C490.194 271.175 492.339 270.367 494.224 270.329C499.042 270.233 504.326 273.353 508.659 275.232L529.165 284.161C558.37 296.981 588.479 308.848 616.168 324.75L619.289 326.645L615.344 329.693L614.435 328.993C610.5 326.376 605.366 324.503 601.097 322.363L521.29 285.845C515.713 283.551 510.367 281.234 504.626 279.351C502.021 278.497 499.559 277.521 496.794 277.335C490.304 276.896 483.792 278.422 477.457 279.579L439.526 287.242C436.287 287.762 429.559 289.958 426.851 288.267L435.793 285.749Z" fill="#D8D8D8"/>
<path d="M306.385 218.694C311.708 216.256 317.78 214.535 323.526 213.421C325.039 213.128 326.475 212.93 327.97 213.419C331.872 214.693 335.708 217.044 339.573 218.594L379.589 235.132C389.518 239.3 399.217 243.813 409.631 246.644C406.853 249.113 402.433 248.841 398.975 249.75C395.359 250.701 392.319 252.093 388.511 252.343C385.733 251.497 382.913 249.67 380.307 248.331L363.676 240.228L306.385 218.694Z" fill="#EEFE9A"/>
<path d="M334.959 399.134L337.284 389.212L413.345 425.802L425.173 431.658C427.117 432.596 429.611 433.476 431.25 434.871C434.264 437.436 435.92 443.192 437.271 446.791C429.465 445.733 421.957 441.091 414.93 437.665L388.546 424.782L334.959 399.134Z" fill="#D8D8D8"/>
<path d="M95.772 445.866L100.567 428.041L68.6326 407.731L66.8994 394.967L121.663 430.056C116.707 441.515 114.826 452.25 115.498 464.752L113.613 463.866C108.76 461.129 104.181 457.544 99.542 454.438C98.6933 453.87 95.7672 452.361 95.359 451.64C95.0856 451.157 95.0748 450.567 94.9327 450.031L95.772 445.866Z" fill="#A3FD31"/>
<path d="M304.814 455.411L309.918 448.718L396.424 494.173C412.081 502.427 427.312 512.231 443.836 518.65C442.418 519.813 441.019 521.089 439.484 522.091C434.261 521.53 428.412 518.646 423.66 516.498L399.965 504.531L364.002 486.284L346.55 478.14L321.633 464.723C316.067 461.74 310.04 458.954 304.814 455.411Z" fill="#EEFE9A"/>
<path d="M268.639 280.625C277.164 288.083 286.999 294.043 296.446 300.25C299.722 302.403 303.746 304.337 306.643 306.937L281.68 321.988C267.535 314.145 251.989 306.532 239.975 295.555L268.639 280.625Z" fill="#8F8278"/>
<path d="M115.885 344.609C113.916 343.657 111.969 342.802 110.25 341.428L110.606 340.649C116.086 338.383 124.347 340.415 130.088 341.43L162.053 349.955C170.115 352.729 211.582 369 215.596 374.195L201.573 385.823L201.074 386.142C201.066 386.145 199.808 386.531 199.75 386.52C198.919 386.37 197.209 385.2 196.396 384.777L188.712 380.782L144.702 357.852C135.396 353.071 125.599 348.485 115.885 344.609Z" fill="#EEFE9A"/>
<path d="M212.367 281.837C235.62 268.772 260.991 258.4 286.238 249.89C291.177 255.145 296.989 257.383 302.437 261.817L235.055 293.325C230.509 289.683 225.177 287.239 219.851 284.976C217.319 283.901 214.755 283.225 212.367 281.837Z" fill="#EEFE9A"/>
<path d="M487.591 601.561C490.876 603.262 495.676 606.129 499.267 606.694C500.587 606.902 500.411 606.699 501.391 605.963C502.234 604.34 502.447 603.159 502.487 601.328C502.595 596.294 490.836 592.734 487.818 589.655C487.187 587.985 487.797 586.053 488.119 584.342C491.712 586.122 494.992 588.279 498.475 590.24L512.396 597.84C516.948 600.487 521.308 603.432 526.157 605.546C527.631 606.188 530.862 605.152 532.75 605.274C537.803 605.603 542.649 606.549 547.455 608.139C570.628 615.804 588.248 635.712 600.377 656.114C602.989 660.509 606.277 665.727 607.938 670.566C606.58 671.634 606.983 672.69 606.25 674.013C605.829 674.774 605.168 675.378 604.581 676.007C603.94 675.685 602.69 675.264 602.193 674.808C601.839 674.483 601.202 672.695 600.994 672.25L597.639 665.256C594.168 658.589 590.081 652.226 585.551 646.231C574.294 631.335 557.532 616.32 538.297 613.977C529.438 612.898 519.724 615.719 512.716 621.256C497.018 633.657 495.677 656.374 493.684 674.666C493.632 673.307 493.618 672.121 493.14 670.83C491.392 666.113 491.816 659.574 492.267 654.633C493.766 638.204 501.274 625.954 513.853 615.556C505.259 612.953 493.398 608.892 486.75 602.779C487.126 602.029 486.873 602.453 487.591 601.561Z" fill="#7BBD08"/>
<path d="M457.38 485.948L472.629 514.634C467.044 514.262 461.383 513.698 455.806 514.431C454.301 514.629 449.607 516.2 448.469 515.912C446.24 515.348 442.703 512.442 440.6 511.25L422.799 501.592L323.244 448.491L325.084 439.056L451.826 504.018C452.509 504.32 452.312 504.265 453 504.918C454.076 504.387 453.945 504.407 454.285 503.325C456.044 497.733 455.308 491.492 457.38 485.948Z" fill="url(#paint1_linear_1_16724)"/>
<path d="M600.851 514.157L624.486 505.587L653.487 494.472C657.062 493.244 661.096 491.126 664.901 491.75C666.536 492.956 666.422 493.353 666.942 495.25C665.686 498.635 637.298 511.394 632.201 513.736C600.842 528.145 567.801 538.235 533.516 542.431C528.207 543.081 521.818 544.448 516.566 543.925L500.808 521.75C501.868 521.201 502.248 521.566 503.374 521.828C513.757 526.479 525.447 531.604 536.978 531.553C541.99 531.567 547.305 530.333 552.169 529.196L579.919 521.378L600.851 514.157Z" fill="#5C85AC"/>
<path d="M281.68 321.988L237.5 354.472L237 354.25L238.875 352.375C240.211 351.574 239.344 352.468 240.238 351.512C241.311 350.365 243.577 348.159 244.97 347.461L245.5 347.25C244.9 346.47 244.429 345.819 243.599 345.266L230 336.245L214.5 325.745L206.002 319.998C203.887 319.998 204.154 321.515 202.25 322L200.625 323.625C199.367 324.358 198.748 325.43 197.625 326.125C195.912 327.185 194.8 328.414 193.375 329.875L192.504 329.75C201.043 321.638 210.584 315.255 220.322 308.727L239.975 295.555C251.989 306.532 267.535 314.145 281.68 321.988Z" fill="url(#paint2_linear_1_16724)"/>
<path d="M268.639 280.625C288.979 270.974 309.871 262.164 331.734 256.622C337.447 255.174 343.423 253.572 349.25 252.755V253.5C347.908 253.552 347.502 253.675 346.25 254C345.432 254.212 344.607 254.278 343.75 254.5C342.816 254.742 342.239 254.66 341.25 255C340.221 255.354 338.943 255.57 337.875 255.875L335.25 256.5L315 262.25C315.672 262.922 315.474 262.999 316.498 263.002L317.25 264L317.875 264.002C318.631 264.456 319.139 264.875 319.75 265.5L320.375 265.503L321 265.877L322.25 266.255L323.75 268L324.375 268.002L325.25 269L325.875 269.002C326.261 269.234 326.599 269.546 327 269.75L327.436 269.853C328.482 270.117 329.355 270.659 330.245 271.25L330.25 272L330.875 272.002L331.5 272.377L332.498 272.502L332.905 272.832C333.702 273.43 333.311 273.138 334.264 273.613C335.08 274.021 335.281 274.251 335.75 275L336.498 275.002L337.25 276L337.875 276.002C338.261 276.234 338.598 276.546 339 276.75L339.998 277.002L340.75 278L341.375 278.003L342 278.377L342.998 278.502L344.25 280L344.875 280.002L345.5 280.377L346.497 280.502L346.75 281.5L347.75 281.255C348.504 281.757 348.998 282.232 349.625 282.875L350.498 283.002C351.605 283.314 352.526 284.554 353.247 285.375C354.391 285.185 355.364 284.57 356.5 284.25L361.75 282.516C362.885 282.137 363.841 281.587 365 281.25L365.734 281C366.72 280.671 367.642 280.483 368.625 280.125L375.266 277.984C376.378 277.614 376.908 277.34 377.986 277.844L306.643 306.937C303.746 304.337 299.722 302.403 296.446 300.25C286.999 294.043 277.164 288.083 268.639 280.625Z" fill="url(#paint3_linear_1_16724)"/>
<path d="M296.512 233.506L295.431 244.564C279.598 248.68 264.632 254.53 249.637 261.012C230.69 269.202 211.788 278.395 193.827 288.577L164.602 306.328L151.037 314.599C149.983 315.246 147.601 316.31 146.944 317.169L126.34 329.673C122.742 331.938 119.39 334.861 115.5 336.6C112.469 337.956 108.952 338.499 105.789 339.745L92.9891 334.582C92.167 334.146 92.0397 334.055 91.4756 333.25L164.991 289.849L194.966 273.827C195.611 274.294 196.137 274.945 196.948 274.924C198.969 274.871 200.911 275.33 202.96 275.392C208.363 274.165 215.2 270.005 219.81 266.956C221.859 266.761 225.66 264.437 227.729 263.533L257.277 250.302L275.552 242.691C281.319 240.711 287.558 238.794 292.734 235.524C293.675 234.93 294.567 234.373 295.584 233.914L296.512 233.506Z" fill="#A3FD31"/>
<path d="M164.991 289.849L194.966 273.827C195.611 274.294 196.137 274.945 196.948 274.924C198.969 274.871 200.911 275.33 202.96 275.392C196.151 280.426 187.452 283.681 179.521 286.514C174.919 288.158 171.148 289.761 166.258 290.402L164.991 289.849Z" fill="#E0FE7F"/>
<path d="M316.927 305.744C355.479 286.464 395.69 273.221 439.001 270.705L476.962 270.24C475.145 272.168 451.688 277.127 446.796 278.968L445.933 279.3C440.569 280.388 435.248 282.547 430.061 284.304C416.245 288.985 402.805 294.406 389.854 301.156L365.068 314.838C361.641 313.681 357.326 313.296 353.718 312.631L333.416 308.829C327.952 307.895 322.269 307.215 316.927 305.744Z" fill="#EEFE9A"/>
<path d="M280.454 392.614L294.405 385.365C298.06 383.493 302.395 381.003 306.538 380.546C311.198 380.032 316.866 381.454 321.307 382.796L325.8 384.471L318.755 414.692L313.512 436.802L311.745 443.569L248.684 410.017L255.008 406.377L280.454 392.614Z" fill="#5FE7E6"/>
<path d="M607.938 670.566L609.194 671.295C613.868 673.656 619.109 675.491 623.947 677.546L654.616 690.44C672.437 697.762 690.606 706.313 709.201 711.394C713.533 712.578 722.058 714.315 726.311 712.813C744.26 706.475 761.546 698.191 778.841 690.283C807.551 677.155 836.262 663.329 863.469 647.256L894.858 627.28L939.75 596.866C944.593 593.222 948.873 588.908 953.636 585.166C952.854 592.386 951.511 595.141 945.766 599.746C930.564 611.931 914.558 622.61 898.287 633.295C872.409 650.29 845.98 666.373 818.231 680.167L767.5 703.512L748.068 712.677C739.538 716.714 731.049 721.512 721.321 720.51C716.096 719.973 710.974 718.432 705.957 716.949C696.528 714.162 687.586 710.728 678.431 707.15L623.326 684.166L609.612 678.153C608.319 677.575 605.862 676.072 604.581 676.007C605.168 675.378 605.829 674.774 606.25 674.013C606.983 672.69 606.58 671.634 607.938 670.566Z" fill="#57970D"/>
<path d="M147.472 319.005L212.367 281.837C214.755 283.225 217.319 283.901 219.851 284.976C225.177 287.239 230.509 289.683 235.055 293.325L207.079 313.894C201.846 317.727 196.24 321.374 191.293 325.562C182.93 332.642 175.08 340.941 168.31 349.548L163.632 348.113L162.053 349.955L130.088 341.43L129.935 340.507C131.124 341.226 131.891 340.9 133.234 340.782C131.977 340.035 130.552 339.918 129.125 339.809L128.679 339.777C129.152 339.156 128.81 339.44 129.882 339.201C129.222 338.543 121.162 337.591 119.723 337.323C121.109 335.48 125.038 333.593 127.04 332.291L147.472 319.005Z" fill="#A3FD31"/>
<path d="M130.088 341.43L129.935 340.507C131.124 341.226 131.891 340.9 133.234 340.782C131.977 340.035 130.552 339.918 129.125 339.809L128.679 339.777C129.152 339.156 128.81 339.44 129.882 339.201L163.632 348.113L162.053 349.955L130.088 341.43Z" fill="#080706"/>
<path d="M77.876 347.608C82.3227 351.824 84.9489 356.807 88.5765 361.638C92.3527 366.666 97.6014 370.861 102.586 374.635C116.948 385.507 133.308 393.649 149.777 400.768C159.367 404.913 169.166 408.56 178.482 413.323L219.158 435.836L292.601 476.547L290.713 483.216L215.355 440.583C202.323 433.35 189.942 425.349 176.004 419.861C171.537 418.103 166.924 416.314 162.172 415.516C150.327 413.529 141.688 415.117 130.807 419.947C128.681 419.172 126.566 417.542 124.63 416.329L113.007 409.054C101.481 401.887 89.0204 395.178 78.0906 387.188C77.3538 383.163 77.2972 378.906 77.0945 374.817C76.6352 365.555 76.7473 356.817 77.876 347.608Z" fill="#7BBD08"/>
<path d="M727.857 734.409C728.589 737.708 729.227 741.176 730.578 744.286C731.51 746.432 732.354 747.465 734.5 748.307C735.678 748.206 736.765 748.194 737.764 747.489L740.25 745.799C742.33 745.894 744.198 745.878 746.224 745.337C751.491 743.927 756.725 740.665 761.557 738.154L785.141 725.829L847.975 692.969L893.326 665.474C903.626 659.136 916.056 653.187 924.41 644.205C927.649 640.723 928.367 635.946 929.406 631.461L932.579 617.861C932.939 616.324 933.227 613.586 934.221 612.409C935.372 611.046 937.676 609.779 939.13 608.653C940.771 607.383 950.053 599.226 951.331 599.249L945.698 623.75C944.497 629.241 943.845 634.975 941.805 640.234C936.789 645.371 929.227 649.101 923.18 653.075C873.636 685.631 821.964 714.516 769.294 741.656L742.599 755.622C737.29 758.374 731.866 761.494 726.227 763.471C716.831 766.766 706.813 766.84 696.992 766.225C675.082 764.852 651.674 759.156 631.94 749.445C629.701 748.343 627.911 747.057 626.542 744.931C624.015 741.008 622.707 735.855 621.081 731.494L603.73 679.634L610.815 683.236C611.258 690.5 622.166 725 627.342 729.663C630.132 732.175 636.127 733.807 639.667 735.314C658.808 743.461 678.402 749.259 698.911 752.77L728.777 756.538C727.441 749.996 725.862 740.858 727.857 734.409Z" fill="url(#paint4_linear_1_16724)"/>
<path d="M610.814 683.236L675.5 710.035C692.374 716.38 709.726 722.612 727.793 724.126C727.852 727.296 728.408 731.34 727.856 734.409C725.861 740.858 727.441 749.996 728.777 756.538L698.911 752.77C678.402 749.259 658.807 743.461 639.666 735.314C636.126 733.807 630.132 732.175 627.342 729.663C622.166 725 611.257 690.5 610.814 683.236Z" fill="#A3FD31"/>
<path d="M304.814 455.411C310.04 458.954 316.067 461.74 321.633 464.723L346.55 478.14L364.002 486.284L399.965 504.531L423.66 516.498C428.412 518.646 434.261 521.53 439.484 522.091C436.698 526.967 435.403 538.221 436.771 543.7C437.136 545.162 437.763 546.162 439.083 546.946C443.864 549.788 461.445 547.884 467.414 547.404C468.797 547.293 471.818 546.636 473.072 546.943C474.237 547.229 475.932 548.489 477.088 549.096C481.369 551.342 487.349 553.934 492.177 552.038C492.876 551.763 493.383 551.457 494.017 551.045L494.966 552.665L489.964 570.75C489.129 573.666 488.446 577.147 487.261 579.898L486.118 584.354C481.228 580.644 474.656 577.868 469.269 574.836L428.701 552.072L294.929 477.03L297.227 469.413L304.814 455.411Z" fill="#A3FD31"/>
<path d="M203.017 387.529C206.794 385.325 210.469 381.553 213.863 378.743L242.856 354.75L264.973 338.396C270.336 334.44 275.661 330.124 281.25 326.509L316.927 305.744C322.269 307.215 327.952 307.895 333.416 308.829L353.718 312.631C357.326 313.296 361.641 313.681 365.068 314.838C350.248 324.795 335.419 334.543 322.005 346.407C314.742 352.829 308.565 361.323 300.75 366.971C296.373 370.134 291.19 372.548 286.383 374.973L265.052 385.496L230.386 402.957L224.591 400.343L211.25 392.506C209.624 391.656 204.537 389.94 203.542 388.848C203.224 388.498 203.192 387.969 203.017 387.529Z" fill="#A3FD31"/>
<path d="M334.959 399.134L388.546 424.782L414.93 437.665C421.957 441.091 429.465 445.733 437.271 446.791L457.38 485.948C455.308 491.492 456.044 497.733 454.285 503.325C453.945 504.407 454.076 504.387 453 504.918C452.312 504.265 452.509 504.32 451.826 504.018L325.084 439.056L334.959 399.134Z" fill="#5FE7E6"/>
<path d="M294.929 477.03L428.701 552.072L469.269 574.836C474.656 577.868 481.228 580.644 486.118 584.354L487.261 579.898L488.919 581.341L488.119 584.342C487.797 586.053 487.187 587.985 487.818 589.655C490.836 592.734 502.595 596.294 502.487 601.328C502.447 603.159 502.234 604.34 501.391 605.963C500.411 606.699 500.587 606.902 499.267 606.694C495.676 606.129 490.876 603.262 487.591 601.561L486.25 600.856C485.126 602.063 485.376 605.153 485.249 606.851L484.847 606.165L484.493 605.325L483.599 605.304L483.215 604.131C478.319 602.831 473.633 600.539 469 598.522L448.427 589.181L395.168 563.531L344.11 535.874L314.897 520.22C310.409 517.957 306.493 515.609 301.684 513.977L303.798 519.437L302.087 520.528C300.141 517.54 298.907 513.191 297.454 509.853L295.727 504.44L292.209 493.486L292.361 493.003L293.623 494.5L293.762 493.011L294.529 492.856C292.867 487.094 293.652 482.765 294.929 477.03Z" fill="#7BBD08"/>
<path d="M292.209 493.486L292.361 493.003L293.623 494.5L293.762 493.011L294.529 492.856C295.439 495.964 296.18 500.246 297.661 503.063L301.684 513.977L303.798 519.437L302.087 520.528C300.141 517.54 298.907 513.191 297.454 509.853L295.727 504.44L292.209 493.486Z" fill="#12140C"/>
<path d="M483.215 604.131C483.811 602.9 483.808 600.75 483.659 599.419C481.429 597.051 478.338 596.223 475.516 594.732L461.188 586.805L340.183 521.258L316.148 508.828C312.163 506.796 306.31 504.677 303.025 501.718C301.85 500.658 301.648 499.837 301.518 498.331C301.29 495.697 301.322 493.347 303.072 491.25C303.665 491.577 303.815 491.75 304.51 491.75C304.862 490.836 305.031 490.509 305.706 489.75L484.25 588.023L485.161 587.622L486.118 584.354L487.261 579.898L488.919 581.341L488.119 584.342C487.797 586.053 487.187 587.985 487.818 589.655C490.836 592.734 502.595 596.294 502.487 601.328C502.447 603.159 502.234 604.34 501.391 605.963C500.411 606.699 500.587 606.902 499.267 606.694C495.676 606.129 490.876 603.262 487.591 601.561L486.25 600.856C485.126 602.063 485.376 605.153 485.249 606.851L484.847 606.165L484.493 605.325L483.599 605.304L483.215 604.131Z" fill="#181818"/>
<path d="M81.3953 337.462L83.2501 334.866C85.9036 333.864 89.1894 335.434 91.7755 336.385L108.62 343.77C109.844 344.297 112.506 345.853 113.777 345.871L115.885 344.609C125.599 348.485 135.396 353.071 144.702 357.852L188.712 380.782L196.396 384.777C197.209 385.2 198.919 386.37 199.75 386.52C199.808 386.531 201.066 386.145 201.074 386.142L201.573 385.823L202.022 385.718C203.149 385.448 203.572 385.392 204.5 384.623L204.75 384.755L204.157 385.352C203.449 386.129 203.279 386.547 203.017 387.529C203.192 387.969 203.224 388.498 203.542 388.848C204.537 389.94 209.624 391.656 211.25 392.506L224.591 400.343C224.357 401.518 224.312 401.762 224.683 402.889L308.429 447.692L303.34 454.003C299.547 459.608 296.689 464.983 294.064 471.211L292.601 476.547L219.158 435.836L178.482 413.323C169.166 408.56 159.367 404.913 149.777 400.768C133.308 393.649 116.948 385.507 102.586 374.635C97.6015 370.861 92.3528 366.666 88.5766 361.638C84.949 356.807 82.3227 351.824 77.876 347.608L81.3953 337.462Z" fill="#A3FD31"/>
<path d="M81.395 337.462L83.2498 334.866C85.9033 333.864 89.1891 335.434 91.7752 336.385L108.62 343.77C109.844 344.297 112.506 345.853 113.777 345.871L115.885 344.609C125.599 348.485 135.396 353.071 144.702 357.852L188.712 380.782L196.396 384.777C197.209 385.2 198.919 386.37 199.75 386.52C199.808 386.531 201.066 386.145 201.074 386.142L201.573 385.823L202.022 385.718C203.149 385.448 203.572 385.392 204.5 384.623L204.75 384.755L204.157 385.352C203.449 386.129 203.279 386.547 203.017 387.529C203.192 387.969 203.224 388.498 203.542 388.848C204.537 389.94 209.624 391.656 211.25 392.506L224.591 400.343C224.357 401.518 224.312 401.762 224.683 402.889L308.429 447.692L303.34 454.003L81.395 337.462Z" fill="#EEFE9A"/>
<path d="M113.777 345.871L115.885 344.609C125.599 348.485 135.396 353.071 144.702 357.852L188.712 380.782L196.396 384.777C197.209 385.2 198.919 386.37 199.75 386.52C199.808 386.531 201.066 386.145 201.074 386.142L201.573 385.823L202.022 385.718C203.149 385.448 203.572 385.392 204.5 384.623L204.75 384.755L204.157 385.352C203.449 386.129 203.279 386.547 203.017 387.529C203.192 387.969 203.224 388.498 203.542 388.848C204.537 389.94 209.624 391.656 211.25 392.506L224.591 400.343C224.357 401.518 224.312 401.762 224.683 402.889L113.777 345.871Z" fill="#080706"/>
<path d="M155.315 435.626C163.486 435.161 172.209 437.954 179 442.482C198.438 455.443 211.563 477.176 216.214 499.859C219.416 515.475 218.761 534.721 209.648 548.343C204.448 556.117 197.667 560.624 188.575 562.387C180.141 563.67 172.593 560.657 165.543 556.128C146.63 543.975 132.924 521.849 128.191 500.062C124.251 481.926 122.01 465.43 132.895 449.038C138.47 440.643 145.782 437.539 155.315 435.626Z" fill="#4E4D4E"/>
<path d="M154.64 450.108C160.988 449.777 167.322 451.033 172.898 454.157C188.3 462.788 199.645 481.274 204.194 497.913C207.643 510.528 208.078 526.19 201.315 537.758C197.215 544.771 191.373 548.568 183.656 550.58C181.405 550.768 178.992 550.664 176.75 550.41C164.239 548.992 153.089 539.046 145.791 529.459C135.246 515.609 128.797 496.398 131.33 478.922L131.469 478C132.389 471.469 134.34 465.382 138.098 459.901C141.939 454.299 148.109 451.238 154.64 450.108Z" fill="#181818"/>
<path d="M155.122 453.577C161.206 452.733 166.792 454.503 172 457.479C186.182 465.584 196.811 482.146 201.022 497.694C204.287 509.751 205.74 524.74 199.115 535.958C195.314 542.394 189.981 545.721 182.852 547.538C175.849 547.878 170.114 546.138 164.037 542.768C150.56 535.293 140.6 520.33 136.501 505.682C132.785 492.403 131.621 476.716 138.98 464.421C142.662 458.27 148.373 455.209 155.122 453.577Z" fill="#D8D8D8"/>
<path d="M140.689 500.492C138.482 489.597 137.773 476.426 144.38 466.743C146.918 463.024 151.703 459.118 156.215 458.451C164.711 457.196 172.952 460.896 179.418 466.157C191.289 475.816 199.05 491.745 200.465 506.912C201.253 515.358 200.938 526.653 195.202 533.586C192.095 537.343 187.067 541.03 182.116 541.435C174.455 542.062 167.239 539.506 161.324 534.633L162.517 532.811C165.341 534.803 168.212 536.577 171.462 537.81C174.756 539.061 182.008 539.469 185.156 537.83C187.057 536.841 188.981 535.91 190.636 534.524C195.96 530.066 198.935 522.474 199.4 515.62C200.412 500.717 195.105 485.053 185.243 473.777C179.17 466.833 171.233 461.834 161.849 461.275C156.785 460.973 152.177 463.281 148.574 466.75C141.908 473.17 141.512 482.838 141.346 491.461C140.772 493.327 140.645 494.072 141.275 495.964C141.813 497.578 141.363 498.99 140.689 500.492Z" fill="#181818"/>
<path d="M141.346 491.461C141.512 482.838 141.908 473.17 148.574 466.75C152.177 463.281 156.785 460.973 161.849 461.275C171.233 461.834 179.17 466.833 185.243 473.777C195.105 485.053 200.412 500.717 199.4 515.62C198.935 522.474 195.96 530.066 190.636 534.524C188.981 535.91 187.057 536.841 185.156 537.83C182.008 539.469 174.756 539.061 171.462 537.81C168.212 536.577 165.341 534.803 162.517 532.811L161.324 534.633C150.443 526.249 144.594 513.276 140.689 500.492C141.363 498.99 141.813 497.578 141.275 495.964C140.645 494.072 140.772 493.327 141.346 491.461Z" fill="#D8D8D8"/>
<path d="M141.346 491.461C143.955 508.244 149.733 521.317 162.517 532.811L161.324 534.633C150.443 526.249 144.594 513.276 140.689 500.492C141.363 498.99 141.813 497.578 141.275 495.964C140.645 494.072 140.772 493.327 141.346 491.461Z" fill="#080706"/>
<path d="M170.861 482.75C172.072 482.564 173.235 482.358 174.444 482.68C178.064 483.645 182.347 488.789 184.145 491.898C187.164 497.118 188.062 502.775 186.365 508.593C185.537 511.429 183.729 512.435 181.235 513.774C180.255 513.822 179.188 513.817 178.218 513.647C174.33 512.964 171.36 510.041 169.29 506.88C166.207 502.171 164.004 495.833 165.314 490.201C166.144 486.631 167.763 484.636 170.861 482.75Z" fill="#181818"/>
<path d="M439.526 287.242L477.457 279.579C483.792 278.422 490.304 276.896 496.794 277.335C499.559 277.521 502.021 278.497 504.626 279.351C510.367 281.234 515.713 283.551 521.29 285.845L601.097 322.363C605.366 324.503 610.5 326.376 614.435 328.993L615.344 329.693L586 347.502C582.313 349.624 578.656 352.184 574.719 353.803C572.657 352.428 568.649 352.392 566.25 351.964C563.156 351.411 560.024 350.559 556.979 349.787C499.914 335.33 442.78 319.756 384.5 310.988C382.536 310.692 381.208 310.341 379.463 309.356C388.249 303.936 398.028 299.282 407.567 295.299C411.838 293.516 416.234 292.093 420.447 290.164L426.851 288.267C429.559 289.958 436.287 287.762 439.526 287.242Z" fill="#E0FE7F"/>
<path d="M536.818 625.208C547.138 624.302 558.195 630.469 565.91 636.67C585.321 652.271 599.685 679.492 602.354 704.201C604.032 719.732 599.243 736.534 589.681 748.865C588.763 750.05 588.118 751.508 587.094 752.589C582.922 756.993 575.599 758.557 569.87 758.753C567.956 758.626 566.115 758.451 564.25 757.987C543.388 752.8 526.692 736.603 516.094 718.392C507.336 703.344 502.179 687.002 501.944 669.514C501.877 664.548 501.933 659.447 503.246 654.627L503.495 653.75C505.081 647.968 508.006 642.743 511.829 638.147C518.295 630.373 526.851 626.15 536.818 625.208ZM529.85 641.529C522.524 644.201 517.153 647.837 513.678 655.016C511.694 659.114 510.957 663.191 510.314 667.65C508 683.696 514.303 704.943 523.89 717.898C532.658 729.747 544.377 740.896 559.626 742.812C562.089 743.121 564.537 742.684 566.981 742.389C574.747 739.338 579.995 735.954 583.459 728C589.913 713.183 586.75 695.766 580.872 681.269C575.12 667.082 564.65 651.374 550.047 645.157C543.128 642.211 537.39 641.368 529.85 641.529Z" fill="#4E4D4E"/>
<path d="M529.85 641.529C537.39 641.368 543.128 642.211 550.047 645.157C564.65 651.374 575.12 667.082 580.872 681.269C586.75 695.766 589.913 713.183 583.459 728C579.995 735.954 574.747 739.338 566.981 742.389C564.537 742.684 562.089 743.121 559.626 742.812C544.377 740.896 532.658 729.747 523.89 717.898C514.303 704.943 508 683.696 510.314 667.65C510.957 663.191 511.694 659.114 513.678 655.016C517.153 647.837 522.524 644.201 529.85 641.529ZM530.328 645.581C523.089 648.953 518.969 652.325 516.163 659.906C510.523 675.146 514.073 691.657 520.772 705.95C527.047 719.337 537.444 732.56 551.75 737.812C556.606 739.595 561.4 739.839 566.459 738.744C572.715 736.252 577.926 732.654 580.591 726.189C586.233 712.5 583.903 695.501 577.989 682.243C571.477 667.642 560.981 653.132 545.531 647.221C540.993 645.484 535.112 644.751 530.328 645.581Z" fill="#181818"/>
<path d="M530.328 645.581C535.112 644.751 540.993 645.484 545.531 647.221C560.981 653.132 571.477 667.642 577.989 682.243C583.903 695.501 586.233 712.5 580.591 726.189C577.926 732.654 572.715 736.252 566.459 738.744C561.4 739.839 556.606 739.595 551.75 737.812C537.444 732.56 527.047 719.337 520.772 705.95C514.073 691.657 510.523 675.146 516.163 659.906C518.969 652.325 523.089 648.953 530.328 645.581ZM553.155 657.222C566.306 666.662 574.474 683.113 577.2 698.858C578.389 705.72 577.902 712.217 576.285 718.953C577.369 719.305 576.867 719.103 577.799 719.539C580.546 711.264 579.861 701.941 577.774 693.567C574.334 679.77 566.08 663.251 553.585 655.645C552.987 656.683 553.096 656.149 553.155 657.222ZM521.64 668.708C520.027 679.771 521.904 690.131 526.23 700.374C527.432 703.222 528.796 706.645 530.622 709.147L531.01 709.661L532.566 708.821C525.39 696.023 522.373 684.076 523.624 669.418L522.924 670.948C521.2 674.43 523.679 679.75 522.125 683.375C522.057 678.973 522.667 673.926 521.835 669.651L521.64 668.708Z" fill="#D8D8D8"/>
<path d="M521.64 668.708L521.835 669.651C522.667 673.926 522.057 678.973 522.125 683.375C523.679 679.75 521.2 674.43 522.924 670.948L523.624 669.418C522.373 684.076 525.39 696.023 532.566 708.821L531.01 709.661L530.622 709.147C528.796 706.645 527.432 703.222 526.23 700.374C521.904 690.131 520.027 679.771 521.64 668.708Z" fill="#080706" fill-opacity="0.988235"/>
<path d="M553.155 657.222C553.096 656.149 552.987 656.683 553.585 655.645C566.08 663.251 574.334 679.77 577.774 693.567C579.861 701.941 580.546 711.264 577.799 719.539C576.867 719.103 577.369 719.305 576.285 718.953C577.902 712.217 578.389 705.72 577.2 698.858C574.474 683.113 566.306 666.662 553.155 657.222Z" fill="#080706" fill-opacity="0.988235"/>
<path d="M532.566 708.821C537.961 717.222 546.007 727.819 556.295 730.296L557.75 730.574L558.565 730.728C562.721 731.439 566.707 730.279 570.096 727.828C573.331 725.488 574.668 722.454 576.285 718.953C577.369 719.305 576.867 719.103 577.799 719.539C576.883 723.512 574.089 727.352 570.81 729.75C566.923 732.592 563.067 733.397 558.329 732.709L557.5 732.581L555.489 732.214C544.696 729.394 536.32 718.873 531.01 709.661L532.566 708.821Z" fill="#080706"/>
<path d="M521.64 668.708L521.597 668.555C521.582 664.105 524.187 657.748 526.939 654.417C529.005 651.917 532.655 650.209 535.896 650.052C541.639 649.773 549.291 651.597 553.585 655.645C552.987 656.683 553.096 656.149 553.155 657.222C548.375 654.858 542.051 651.526 536.577 653.261C531.795 654.777 528.486 657.586 526.254 662.1C525.111 664.413 524.492 666.968 523.687 669.414L523.624 669.418L522.924 670.948C521.2 674.43 523.679 679.75 522.125 683.375C522.057 678.973 522.667 673.926 521.835 669.651L521.64 668.708Z" fill="#181818"/>
<path d="M523.624 669.418L523.687 669.414C524.492 666.968 525.111 664.413 526.254 662.1C528.486 657.586 531.795 654.777 536.577 653.261C542.051 651.526 548.375 654.858 553.155 657.222C566.306 666.662 574.474 683.113 577.2 698.858C578.389 705.72 577.902 712.217 576.285 718.953C574.668 722.454 573.331 725.488 570.096 727.828C566.707 730.279 562.721 731.439 558.565 730.728L557.75 730.574L556.295 730.296C546.007 727.819 537.961 717.222 532.566 708.821C525.39 696.023 522.373 684.076 523.624 669.418Z" fill="#D8D8D8"/>
<path d="M534.671 686.75L535.211 686.852C535.88 694.021 539.152 701.852 543.308 707.679C546.379 711.987 550.39 715.75 555.763 716.617L556.374 716.711L557.311 716.892C559.406 717.066 561.591 715.329 563.16 714.148L563.679 713.75L564.299 714.75C563.998 715.301 563.727 715.827 563.272 716.272C561.783 717.727 559.851 718.654 557.772 718.689C553.712 718.758 549.923 717.088 547.021 714.25C540.187 707.568 534.587 696.38 534.671 686.75Z" fill="#080706"/>
<path d="M546.087 676.75C547.575 676.193 549.319 676.214 550.851 676.634C554.941 677.755 558.251 681.525 560.324 685.06C563.139 689.861 565.331 695.82 563.707 701.369C563.029 703.69 561.868 704.94 559.75 706.022C558.638 706.354 557.828 706.597 556.672 706.339C552.171 705.333 548.634 702.226 546.176 698.423C543.164 693.762 540.667 687.211 542.054 681.661C542.651 679.273 544.027 677.963 546.087 676.75Z" fill="#181818"/>
<path d="M547.078 679.25C547.789 679.134 548.524 678.988 549.25 679.003C551.629 679.05 553.919 680.659 555.523 682.285C559.198 686.013 562.288 692.974 561.886 698.255C561.72 700.425 560.73 701.947 559.061 703.25C558.244 703.388 557.327 703.555 556.5 703.451C553.337 703.052 550.433 699.736 548.718 697.289C546.172 693.653 543.168 687.865 544.172 683.313C544.607 681.339 545.419 680.355 547.078 679.25Z" fill="#4E4D4E"/>
<path d="M536.891 389.273L588.245 361.991C601.101 355.142 614.867 348.741 626.271 339.613C631.972 341.728 636.987 346.109 641.776 349.751L655.695 359.856L700.651 392.837L725.079 410.954L743.251 422.149C736.854 432.507 727.294 439.334 717.655 446.427L700.819 458.611L588.795 412.172L556.217 398.267C549.688 395.438 543.026 392.911 536.891 389.273Z" fill="#D8D8D8"/>
<path d="M379.463 309.356C381.208 310.341 382.536 310.692 384.5 310.988C442.78 319.756 499.914 335.33 556.979 349.787C560.024 350.559 563.156 351.411 566.25 351.964C568.649 352.392 572.657 352.428 574.719 353.803C569.853 356.643 563.711 359.196 559.298 362.514C555.892 363.508 552.06 365.962 548.843 367.547L527.317 378.06L457.966 411.576L445.978 417.32C445.116 417.732 443.145 418.981 442.332 419.064C442.083 419.089 393.569 392.781 386.903 389.75C373.108 383.476 358.795 377.98 344.5 372.98C337.409 370.5 330.366 367.678 322.984 366.14C317.616 365.021 312.195 364.823 306.737 364.633C319.402 350.233 334.776 337.945 350.534 327.104C357.815 322.096 365.081 317.086 372.833 312.817L379.463 309.356Z" fill="#A3FD31"/>
<path d="M219.822 464.611C222.774 465.248 224.88 467.075 227.353 468.706L238.612 475.86L271.296 494.655L288.437 504.628C291.434 506.413 294.292 508.347 297.454 509.853C298.907 513.191 300.141 517.54 302.087 520.528L303.798 519.437L301.684 513.977C306.493 515.609 310.409 517.957 314.897 520.22L344.11 535.874L395.168 563.531L448.427 589.181L469 598.522C473.633 600.539 478.319 602.831 483.215 604.131L483.599 605.304L484.493 605.325L484.847 606.165L485.249 606.851C485.376 605.153 485.126 602.063 486.25 600.856L487.591 601.561C486.873 602.453 487.126 602.029 486.75 602.779C493.398 608.892 505.259 612.953 513.853 615.556C501.274 625.954 493.766 638.204 492.267 654.633C491.816 659.574 491.392 666.113 493.14 670.83C493.618 672.121 493.632 673.307 493.684 674.666C493.551 675.705 493.426 676.149 492.75 676.957C489.307 675.747 485.845 673.61 482.575 671.951L462.865 661.93L401.792 631.009L309.647 584.326L281.423 569.991C276.172 567.33 270.629 564.876 265.603 561.819C262.438 556.045 258.088 550.827 254.514 545.277L240.558 521.219C239.186 518.807 237.81 516.671 235.708 514.841C233.319 510.89 232.272 504.563 230.851 500.012L219.822 464.611Z" fill="#A3FD31"/>
<path d="M302.087 520.528L303.798 519.437C310.688 535.977 318.734 551.652 328.323 566.791C329.929 569.327 331.568 572.688 333.63 574.855C335.762 577.094 340.018 578.611 342.75 580.01L362.001 590.018L480.439 650.699L483.599 605.304L484.493 605.325L484.847 606.165L485.249 606.851L481.956 654.035L442.203 633.557L360.897 591.87L344.932 583.716C340.983 581.777 335.43 580.128 332.318 577.092C329.374 574.22 327.192 569.435 325.113 565.878C316.594 551.306 308.192 536.302 302.087 520.528Z" fill="#080706"/>
<path d="M301.684 513.977C306.493 515.609 310.409 517.957 314.897 520.22L344.11 535.874L395.168 563.531L448.427 589.181L469 598.522C473.633 600.539 478.319 602.831 483.215 604.131L483.599 605.304L480.439 650.699L362.001 590.018L342.75 580.01C340.018 578.611 335.762 577.094 333.63 574.855C331.568 572.688 329.929 569.327 328.323 566.791C318.734 551.652 310.688 535.977 303.798 519.437L301.684 513.977Z" fill="#A3FD31"/>
<path d="M503.975 520.055C502.704 519.571 499.454 518.69 498.6 517.714C497.642 516.618 496.75 514 496.036 512.588L489.531 500.292L450.632 429.994L536.891 389.273C543.026 392.911 549.688 395.438 556.217 398.267L588.795 412.172L700.819 458.611L717.655 446.427C727.294 439.334 736.854 432.507 743.251 422.149C745.1 423.048 746.7 423.896 748.306 425.188C743.603 443.076 731.741 454.079 717.486 465.102C707.103 473.131 695.846 480.371 684.5 486.967L672.398 493.748C671.425 491.363 670.774 488.968 668.27 487.773C666.855 487.098 664.37 487.259 662.882 487.665C658.872 488.756 654.874 490.742 651.009 492.309L630.924 500.373L598.347 512.806L597.442 513.291L580.004 519.677L579.919 521.378L552.169 529.196C547.305 530.333 541.99 531.567 536.978 531.553L534.77 529.972C523.962 528.042 514.075 524.226 503.975 520.055Z" fill="url(#paint5_linear_1_16724)"/>
<path d="M534.77 529.972C550.026 530.411 565.779 524.658 580.004 519.677L579.919 521.378L552.169 529.196C547.305 530.333 541.99 531.567 536.978 531.553L534.77 529.972Z" fill="#080706"/>
<path d="M560.03 362.815L623.378 328.059L640.743 340.225L641.75 342C640.685 342.543 638.238 340.049 636.723 339.808L635.954 339.708L635.25 339.373C632.132 337.851 629.654 335.4 626.405 334.016C620.786 336.808 615.717 340.694 610.341 343.921L578.999 361.644L535.16 383.816L482.087 410.445L460.25 420.568C456.349 422.357 451.905 423.965 448.326 426.315C447.149 427.088 446.029 427.878 445.551 429.25C447.086 433.109 449.544 436.677 451.484 440.362L468.839 472.25L492.861 515.919C497.097 523.52 500.932 531.295 505.879 538.483C509.398 543.596 513.761 548.922 519.177 552.166L519.422 552.237C534.311 565.068 552.63 572.777 568.05 584.66C570.54 586.229 573.184 588.158 575.834 589.395C574.822 587.981 573.041 587.001 571.621 586.006L563.399 580.229L535.948 561.054C531.502 557.967 527.148 554.406 522.423 551.773L519.89 549.5C521.599 548.005 526.111 547.903 528.366 547.613L551.71 544.403C566.543 541.808 581.574 537.939 595.772 532.887C618.196 524.907 640.045 514.755 661 503.506C673.259 496.925 685.685 490.472 697.404 482.961C707.927 476.216 717.887 468.488 727.684 460.741L751.5 476.978L752.197 476.75L728.733 459.726C740.955 449.263 748.29 437.93 752.863 422.528C758.214 426.429 764.123 429.521 769.901 432.74L793.954 446.28C818.12 460.28 841.64 475.375 864.013 492.101C878.454 502.897 892.326 513.714 904.416 527.179L904.969 527C905.23 525.543 905.618 523.998 905.688 522.526C915.769 531.632 924.462 541.259 933.493 551.379C939.406 558.007 945.592 564.476 950.363 572.009C952.137 574.812 953.954 578.354 953.973 581.75L953.665 584.737L953.636 585.166C948.873 588.908 944.593 593.222 939.75 596.866L894.858 627.28L863.469 647.256C836.262 663.329 807.551 677.155 778.841 690.283C761.546 698.191 744.26 706.475 726.311 712.813C722.058 714.315 713.533 712.578 709.201 711.394C690.606 706.313 672.437 697.762 654.616 690.44L623.947 677.546C619.109 675.491 613.868 673.656 609.194 671.295L607.938 670.566C606.277 665.727 602.989 660.509 600.377 656.114C588.248 635.712 570.628 615.804 547.455 608.139C542.649 606.549 537.803 605.603 532.75 605.274C530.862 605.152 527.631 606.188 526.157 605.546C521.308 603.432 516.948 600.487 512.396 597.84L498.475 590.24C494.992 588.279 491.712 586.122 488.119 584.342L488.919 581.341L487.261 579.898C488.446 577.147 489.129 573.666 489.964 570.75L494.966 552.665L498.105 542.97C495.386 537.035 491.635 531.692 488.513 526L468.559 489.217L451.232 456.667C447.564 449.394 444.268 441.475 440.182 434.473C438.606 431.773 436.855 429.73 434.626 427.587C435.225 427.043 435.953 426.787 436.68 426.442C435.473 425.035 432.931 423.637 431.33 422.643L418.557 415.36C391.851 401.293 364.312 389.28 335.947 378.956C328.466 376.233 320.528 372.682 312.658 371.499C309.987 371.098 307.372 370.534 304.656 370.929C296.044 372.181 266.155 389.884 261.757 389.25L304.098 367.995C306.459 367.235 310.047 367.927 312.499 368.092C324.314 368.887 335.365 372.95 346.437 376.878C379.585 388.639 410.125 404.2 440.657 421.511C446.3 419.746 451.735 416.874 457.102 414.399L489.134 398.813L560.03 362.815Z" fill="#A3FD31"/>
<path d="M434.626 427.587C435.225 427.043 435.953 426.787 436.68 426.442C438.285 427.954 439.58 429.342 440.663 431.286L449.55 448.929L474.145 494.955L490.806 525.215C493.888 530.718 498.197 536.368 499.977 542.423L488.919 581.341L487.261 579.898C488.446 577.147 489.129 573.666 489.964 570.75L494.966 552.665L498.105 542.97C495.386 537.035 491.635 531.692 488.513 526L468.559 489.217L451.232 456.667C447.564 449.394 444.268 441.475 440.182 434.473C438.606 431.773 436.855 429.73 434.626 427.587Z" fill="#080706"/>
<path d="M568.05 584.66C570.54 586.229 573.184 588.158 575.834 589.395C578.122 591.595 581.336 593.34 583.992 595.115L597.996 604.589L644.671 637.722L644.941 637.711C648.164 639.153 650.965 641.488 653.853 643.502L668.607 653.75C668.251 654.308 667.979 654.447 668.072 655.125L668.805 656.12L668.364 656.792L712.953 698.77C711.832 699.612 711.625 699.885 710.25 699.985C696.38 687.413 681.638 676.44 666.973 664.857L603.05 614.068L584.263 599.109C579.658 595.516 574.716 592.106 570.447 588.113C569.353 587.09 568.639 586.027 568.05 584.66Z" fill="#D8D8D8"/>
<path d="M644.941 637.711C648.164 639.153 650.965 641.488 653.853 643.502L668.607 653.75C668.251 654.308 667.979 654.447 668.072 655.125L668.805 656.12L668.364 656.792L644.941 637.711Z" fill="#12140C"/>
<path d="M668.607 653.75L674.42 657.869C687.619 654.457 700.908 648.66 713.683 643.754C718.003 642.095 724.459 637.604 729.021 637.851C739.004 650.121 745.681 665.903 750.518 680.858L775.505 669.184L703.989 609.1L662.449 578.848L624 553.588C617.679 549.625 610.594 546.438 604.929 541.531C617.369 535.238 630.874 530.934 643.267 524.539L664.5 512.53L721.54 478.99L763.126 508.006L709.872 539.449C697.126 546.86 684.143 555.466 670.741 561.535C667.879 560.496 664.551 556.975 661.877 555.196C654.023 549.97 645.271 545.47 637.849 539.659C636.24 538.399 634.437 536.659 633.617 534.75L632.591 530.971L607.484 541.582L677.969 587.101C686.451 593.019 694.447 599.886 702.631 606.23L733.394 630.199L777.497 668.261L900.831 596.677L900.902 596.191L844.278 544.25L845 544.047L862.548 556.738L889.198 541.783C895.195 538.346 900.747 534.471 907.266 532.027C911.815 536.925 915.76 542.195 919.96 547.382C925.494 554.217 931.36 560.893 935.71 568.571C931.963 573.882 927.764 578.49 922.845 582.745C908.307 595.323 891.741 605.192 875.531 615.402L848.521 632.376L810.945 653.132L784.056 667.885C761.302 679.284 737.168 690.92 712.953 698.77L668.364 656.792L668.805 656.12L668.072 655.125C667.979 654.447 668.251 654.308 668.607 653.75Z" fill="#181818"/>
<path d="M896.476 539.764L898.029 542.352L891.628 545.859L890.318 543.373L896.476 539.764Z" fill="#FC4C26"/>
<path d="M713.925 530.756C718.273 527.603 724.092 524.648 728.941 522.284L730.748 523.171L714.425 533.246C715.106 532.173 715.877 531.267 716.885 530.483L717.375 530.125L713.925 530.756Z" fill="#4E4D4E"/>
<path d="M896.476 539.764L905.363 534.25C906.679 534.685 906.939 535.21 907.821 536.25C906.738 538.831 900.54 541.204 898.029 542.352L896.476 539.764Z" fill="#FE832A"/>
<path d="M868.26 561.658L863.62 558.363L890.318 543.373L891.628 545.859L890.646 546.71C886.071 548.497 880.177 551.378 876.793 555.027C874.201 557.658 871.65 560.069 868.26 561.658Z" fill="#D52213"/>
<path d="M713.925 530.756L717.375 530.125L716.885 530.483C715.877 531.267 715.106 532.173 714.425 533.246C706.583 538.544 698.24 543.104 690.028 547.797C683.92 551.288 677.749 555.365 671.06 557.605L662.041 551.609L662.231 550.723C664.729 552.373 667.1 553.94 669.885 555.075C675.001 553.274 679.419 550.557 684.065 547.802L700.311 538.342C704.582 535.793 708.834 532.939 713.409 530.972L713.925 530.756Z" fill="#5E5D5F"/>
<path d="M876.793 555.027L899.54 580.978L908.472 590.863L902.493 595.578L868.26 561.658C871.65 560.069 874.201 557.658 876.793 555.027Z" fill="#FC4C26"/>
<path d="M713.331 646.75L714.353 646.775C711.867 648.44 708.812 649.206 706.019 650.273L689.127 656.744C700.211 668.513 709.214 680.893 717.936 694.463C716.369 695.27 714.976 695.73 713.25 696.086L709.876 692.282L677.042 660.066C680.82 657.706 686.395 656.81 690.616 655.323L713.331 646.75Z" fill="#FC4C26"/>
<path d="M646.391 541.441C641.816 538.528 638.063 536.138 634.769 531.763C638.332 528.533 642.654 527.128 646.806 524.88L664.845 514.829L721.161 481.907C723.205 482.699 725.56 485.145 727.318 486.539L738.375 494.774L758.469 507.764L730.748 523.171L728.941 522.284L742.748 513.715C745.961 511.81 749.123 510.3 751.878 507.73C743.244 500.423 731.901 493.143 721.542 488.653C709.99 493.136 700.429 499.987 689.821 506.2C677.795 513.244 664.121 520.201 653.329 528.996C651.281 530.664 649.065 532.783 647.964 535.206L647.749 535.7L646.948 537.413C646.887 538.715 647.056 540.313 646.391 541.441Z" fill="#5E5D5F"/>
<path d="M891.548 547.542L909.105 538.222C912.276 539.695 915.498 545.698 917.738 548.551L933.487 568.3C926.368 576.247 918.463 583.256 909.882 589.601L900.157 579.005C899.81 577.807 896.94 575.115 896.008 574.018L879.898 555.041L891.548 547.542Z" fill="#FDC050"/>
<path d="M728.225 643.25L729.75 642.902C732.465 645.298 734.107 648.821 735.862 651.943C741.199 661.436 745.286 671.096 748.607 681.454C746.855 683.113 743.082 684.11 740.82 685.066L720.542 693.698C719.25 692.872 718.297 691.077 717.413 689.801L692.951 657.686L728.225 643.25Z" fill="#FDC050"/>
<path d="M646.948 537.413L647.749 535.7L647.964 535.206C649.065 532.783 651.281 530.664 653.329 528.996C664.121 520.201 677.795 513.244 689.821 506.2C700.429 499.987 709.99 493.136 721.542 488.653C731.901 493.143 743.244 500.423 751.878 507.73C749.123 510.3 745.961 511.81 742.748 513.715L728.941 522.284C724.092 524.648 718.273 527.603 713.925 530.756L713.409 530.972C708.834 532.939 704.582 535.793 700.311 538.342L684.065 547.802C679.419 550.557 675.001 553.274 669.885 555.075C667.1 553.94 664.729 552.373 662.231 550.723L662.041 551.609L646.391 541.441C647.056 540.313 646.887 538.715 646.948 537.413Z" fill="#181818"/>
<path d="M646.391 541.441C647.056 540.313 646.887 538.715 646.948 537.413C647.243 538.123 647.458 539.156 648.105 539.562C652.93 542.591 657.894 546.973 662.231 550.723L662.041 551.609L646.391 541.441Z" fill="#4E4D4E"/>
<path d="M735.964 500.75C739.507 500.613 745.167 505.389 748.38 507.335L672.517 551.75L671.235 551.953C666.755 550.565 663.433 547.545 659.806 544.69L735.964 500.75Z" fill="url(#paint6_linear_1_16724)"/>
<path d="M720.548 492.25L721.01 492.125C725.029 491.564 730.989 496.396 734.177 498.573L660.331 541.423L655.723 543.726C653.36 542.46 651.07 539.937 649.053 538.127C650.569 534.347 654.572 531.342 657.72 528.977C666.543 522.347 676.496 517.033 686 511.449C697.451 504.721 708.426 497.764 720.548 492.25Z" fill="#5E5D5F"/>
<defs>
<linearGradient id="paint0_linear_1_16724" x1="417.64" y1="263.307" x2="413.753" y2="246.737" gradientUnits="userSpaceOnUse">
<stop stop-color="#7EC608"/>
<stop offset="1" stop-color="#B9FF2A"/>
</linearGradient>
<linearGradient id="paint1_linear_1_16724" x1="385.327" y1="493.823" x2="414.015" y2="455.741" gradientUnits="userSpaceOnUse">
<stop stop-color="#3BCDD5"/>
<stop offset="1" stop-color="#5BB9DE"/>
</linearGradient>
<linearGradient id="paint2_linear_1_16724" x1="231.196" y1="336.6" x2="255.241" y2="303.985" gradientUnits="userSpaceOnUse">
<stop stop-color="#4D4E4F"/>
<stop offset="1" stop-color="#6B6F6D"/>
</linearGradient>
<linearGradient id="paint3_linear_1_16724" x1="321.146" y1="265.901" x2="300.096" y2="301.738" gradientUnits="userSpaceOnUse">
<stop stop-color="#434343"/>
<stop offset="1" stop-color="#727272"/>
</linearGradient>
<linearGradient id="paint4_linear_1_16724" x1="605.534" y1="679.609" x2="948.033" y2="685.654" gradientUnits="userSpaceOnUse">
<stop stop-color="#5C9304"/>
<stop offset="1" stop-color="#7DBD11"/>
</linearGradient>
<linearGradient id="paint5_linear_1_16724" x1="653.905" y1="356.873" x2="523.421" y2="534.566" gradientUnits="userSpaceOnUse">
<stop stop-color="#6D8D99"/>
<stop offset="1" stop-color="#84A1B8"/>
</linearGradient>
<linearGradient id="paint6_linear_1_16724" x1="747.186" y1="510.254" x2="660.533" y2="541.849" gradientUnits="userSpaceOnUse">
<stop stop-color="#5D5C5E"/>
<stop offset="1" stop-color="#828281"/>
</linearGradient>
</defs>
</svg>
